<svg id="Layer_1" data-name="Layer 1" xmlns="http://www.w3.org/2000/svg" xmlns:xlink="http://www.w3.org/1999/xlink" viewBox="0 0 145.07 145.07"><defs><radialGradient id="radial-gradient" cx="206.9" cy="1175.6" r="59.9" gradientTransform="matrix(1, 0, 0, -1, -134.37, 1248.17)" gradientUnits="userSpaceOnUse"><stop offset="0.5" stop-color="#240e13"/><stop offset="0.83" stop-color="#3f151e"/><stop offset="0.86" stop-color="#461721"/><stop offset="0.92" stop-color="#591e2b"/><stop offset="0.97" stop-color="#732738"/></radialGradient></defs><title>alex_logo2</title><circle cx="72.53" cy="72.53" r="70.53" style="fill:#fff;stroke:#3f151e;stroke-miterlimit:10;stroke-width:4px"/><circle cx="72.53" cy="72.57" r="59.9" style="fill:url(#radial-gradient)"/><path d="M273.6,184.7c-1.6,4.9-1.7,7.3-7.6,7.3H233l-8.6,23.7H208.1l8.6-23.7h-14q-22.95,27.75-44.9,27.7a22.39,22.39,0,0,1-10.8-2.4,9.57,9.57,0,0,1-5.5-8.9c0-3.3,1.4-6.6,4.1-9.7,4.4-5.1,11.1-8.8,20-11.3a88.35,88.35,0,0,1,23.2-2.8h8.9l27.6-33.2h22l-11.8,33.2h38.1v0.1ZM191.5,192c-11.4,0-19.4,1.6-24,4.9q-5.7,4-5.7,8.7c0,2.6,1.4,3.9,4.1,3.9,3.8,0,8.5-2.1,14.1-6.4A51,51,0,0,0,191.5,192Zm37.3-32.9-20,25.6H219Z" transform="translate(-134.37 -125.83)" style="fill:#fff"/><path d="M255.8,237c-0.8,2.7-3.87,5.3-6.67,6.6-2,.9-21.93.9-24.23,0.9h-18c-4.6,0-6.9-1.6-6.9-4.7a11.07,11.07,0,0,1,.5-2.8l17.3-48.8h16.5L217,237h38.8Z" transform="translate(-134.37 -125.83)" style="fill:#fff"/></svg>