<?xml version="1.0" encoding="utf-8"?>
<!-- Generator: Adobe Illustrator 19.2.0, SVG Export Plug-In . SVG Version: 6.00 Build 0)  -->
<svg version="1.1" id="Layer_1" xmlns="http://www.w3.org/2000/svg" xmlns:xlink="http://www.w3.org/1999/xlink" x="0px" y="0px"
	 viewBox="0 0 145.1 145.1" style="enable-background:new 0 0 145.1 145.1;" xml:space="preserve">
<style type="text/css">
	.st0{fill:#FFFFFF;stroke:#3F151E;stroke-width:4;stroke-miterlimit:10;}
	.st1{fill:url(#SVGID_1_);}
	.st2{fill:#FFFFFF;}
</style>
<circle class="st0" cx="72.5" cy="72.5" r="70.5"/>
<radialGradient id="SVGID_1_" cx="72.5333" cy="1049.7667" r="59.9" gradientTransform="matrix(1 0 0 -1 0 1122.3334)" gradientUnits="userSpaceOnUse">
	<stop  offset="0.5" style="stop-color:#240E13"/>
	<stop  offset="0.8265" style="stop-color:#3F151E"/>
	<stop  offset="0.8639" style="stop-color:#461721"/>
	<stop  offset="0.9176" style="stop-color:#591E2B"/>
	<stop  offset="0.9719" style="stop-color:#732738"/>
</radialGradient>
<circle class="st1" cx="72.5" cy="72.6" r="59.9"/>
<g>
	<g>
		<path class="st2" d="M139.2,58.9c-1.6,4.9-1.7,7.3-7.6,7.3h-33L90,89.9H73.7l8.6-23.7h-14C53,84.7,38,93.9,23.4,93.9
			c-4.3,0-7.8-0.8-10.8-2.4c-3.7-2-5.5-5-5.5-8.9c0-3.3,1.4-6.6,4.1-9.7c4.4-5.1,11.1-8.8,20-11.3c7-1.9,14.7-2.8,23.2-2.8h8.9
			l27.6-33.2h22l-11.8,33.2L139.2,58.9L139.2,58.9z M57.1,66.2c-11.4,0-19.4,1.6-24,4.9c-3.8,2.7-5.7,5.6-5.7,8.7
			c0,2.6,1.4,3.9,4.1,3.9c3.8,0,8.5-2.1,14.1-6.4C50.6,73.7,54.4,69.9,57.1,66.2z M94.4,33.3l-20,25.6h10.2L94.4,33.3z"/>
	</g>
	<g>
		<path class="st2" d="M121.4,111.2c-0.8,2.7-3.9,5.3-6.7,6.6c-2,0.9-21.9,0.9-24.2,0.9h-18c-4.6,0-6.9-1.6-6.9-4.7
			c0-0.8,0.2-1.7,0.5-2.8l17.3-48.8h16.5l-17.3,48.8H121.4z"/>
	</g>
</g>
</svg>
